<mxfile host="65bd71144e">
    <diagram name="第 1 页" id="_kCn5gWWrIlWfqqUU_DX">
        <mxGraphModel dx="1090" dy="731" grid="1" gridSize="10" guides="1" tooltips="1" connect="1" arrows="1" fold="1" page="1" pageScale="1" pageWidth="1100" pageHeight="1700" math="0" shadow="0">
            <root>
                <mxCell id="0"/>
                <mxCell id="1" parent="0"/>
                <mxCell id="YPL2zZCJEPcPc3VNx12_-89" value="opt" style="shape=umlFrame;whiteSpace=wrap;html=1;" parent="1" vertex="1">
                    <mxGeometry x="230" y="470" width="590" height="450" as="geometry"/>
                </mxCell>
                <mxCell id="3" value="&lt;p&gt;&lt;font style=&quot;font-size: 16px;&quot;&gt;老師&lt;/font&gt;&lt;/p&gt;" style="shape=umlLifeline;participant=umlActor;perimeter=lifelinePerimeter;whiteSpace=wrap;html=1;container=1;collapsible=0;recursiveResize=0;verticalAlign=top;spacingTop=36;outlineConnect=0;size=60;align=center;" parent="1" vertex="1">
                    <mxGeometry x="260" y="96.25" width="40" height="905" as="geometry"/>
                </mxCell>
                <mxCell id="6" value="輸入資料UI" style="shape=umlLifeline;participant=umlBoundary;perimeter=lifelinePerimeter;whiteSpace=wrap;html=1;container=1;collapsible=0;recursiveResize=0;verticalAlign=top;spacingTop=36;outlineConnect=0;fontSize=16;size=53;" parent="1" vertex="1">
                    <mxGeometry x="380" y="101.25" width="80" height="907.5" as="geometry"/>
                </mxCell>
                <mxCell id="18" value="" style="html=1;points=[];perimeter=orthogonalPerimeter;" parent="6" vertex="1">
                    <mxGeometry x="35" y="138.75" width="10" height="50" as="geometry"/>
                </mxCell>
                <mxCell id="7" value="確認結果UI" style="shape=umlLifeline;participant=umlBoundary;perimeter=lifelinePerimeter;whiteSpace=wrap;html=1;container=1;collapsible=0;recursiveResize=0;verticalAlign=top;spacingTop=36;outlineConnect=0;fontSize=16;size=54;" parent="1" vertex="1">
                    <mxGeometry x="510" y="101.25" width="80" height="900" as="geometry"/>
                </mxCell>
                <mxCell id="26" value="" style="html=1;points=[];perimeter=orthogonalPerimeter;" parent="7" vertex="1">
                    <mxGeometry x="35" y="250" width="10" height="50" as="geometry"/>
                </mxCell>
                <mxCell id="YPL2zZCJEPcPc3VNx12_-100" value="" style="html=1;points=[];perimeter=orthogonalPerimeter;" parent="7" vertex="1">
                    <mxGeometry x="35" y="742.5" width="10" height="36.25" as="geometry"/>
                </mxCell>
                <mxCell id="8" value="Application Core" style="shape=umlLifeline;perimeter=lifelinePerimeter;whiteSpace=wrap;html=1;container=1;collapsible=0;recursiveResize=0;outlineConnect=0;" parent="1" vertex="1">
                    <mxGeometry x="610" y="111.25" width="190" height="890" as="geometry"/>
                </mxCell>
                <mxCell id="YPL2zZCJEPcPc3VNx12_-92" value="opt" style="shape=umlFrame;whiteSpace=wrap;html=1;" parent="8" vertex="1">
                    <mxGeometry x="-130" y="593.75" width="320" height="186.25" as="geometry"/>
                </mxCell>
                <mxCell id="22" value="" style="html=1;points=[];perimeter=orthogonalPerimeter;" parent="8" vertex="1">
                    <mxGeometry x="90" y="180" width="10" height="60" as="geometry"/>
                </mxCell>
                <mxCell id="46" value="" style="html=1;points=[];perimeter=orthogonalPerimeter;" parent="8" vertex="1">
                    <mxGeometry x="90" y="455" width="10" height="70" as="geometry"/>
                </mxCell>
                <mxCell id="77" value="ref" style="shape=umlFrame;whiteSpace=wrap;html=1;" parent="8" vertex="1">
                    <mxGeometry y="660" width="120" height="70" as="geometry"/>
                </mxCell>
                <mxCell id="85" value="修改建議資料" style="text;html=1;align=center;verticalAlign=middle;resizable=0;points=[];autosize=1;strokeColor=none;fillColor=none;" parent="8" vertex="1">
                    <mxGeometry y="688.75" width="100" height="30" as="geometry"/>
                </mxCell>
                <mxCell id="49" value="需不需要重新生成" style="text;html=1;align=center;verticalAlign=middle;resizable=0;points=[];autosize=1;strokeColor=none;fillColor=none;" parent="8" vertex="1">
                    <mxGeometry x="-50" y="398.75" width="120" height="30" as="geometry"/>
                </mxCell>
                <mxCell id="YPL2zZCJEPcPc3VNx12_-91" value="" style="html=1;points=[];perimeter=orthogonalPerimeter;" parent="8" vertex="1">
                    <mxGeometry x="-65" y="440" width="10" height="220" as="geometry"/>
                </mxCell>
                <mxCell id="YPL2zZCJEPcPc3VNx12_-96" value="[是否還需要編輯建議資料]" style="text;html=1;align=center;verticalAlign=middle;whiteSpace=wrap;rounded=0;" parent="8" vertex="1">
                    <mxGeometry x="-50" y="593.75" width="160" height="30" as="geometry"/>
                </mxCell>
                <mxCell id="YPL2zZCJEPcPc3VNx12_-95" value="7:編輯建議資料()" style="text;html=1;align=center;verticalAlign=middle;whiteSpace=wrap;rounded=0;" parent="8" vertex="1">
                    <mxGeometry x="-30" y="623.75" width="100" height="30" as="geometry"/>
                </mxCell>
                <mxCell id="YPL2zZCJEPcPc3VNx12_-101" value="" style="endArrow=classic;html=1;rounded=0;exitX=-0.004;exitY=1.045;exitDx=0;exitDy=0;exitPerimeter=0;elbow=vertical;dashed=1;" parent="8" source="77" edge="1">
                    <mxGeometry width="50" height="50" relative="1" as="geometry">
                        <mxPoint x="-39.92000000000007" y="669.9975" as="sourcePoint"/>
                        <mxPoint x="-50" y="733.75" as="targetPoint"/>
                    </mxGeometry>
                </mxCell>
                <mxCell id="YPL2zZCJEPcPc3VNx12_-102" value="8:顯示建議資料()" style="text;html=1;align=center;verticalAlign=middle;whiteSpace=wrap;rounded=0;" parent="8" vertex="1">
                    <mxGeometry x="-40" y="738.75" width="100" height="30" as="geometry"/>
                </mxCell>
                <mxCell id="15" value="1:建立備課資料()" style="html=1;verticalAlign=bottom;endArrow=classicThin;endFill=1;entryX=0.068;entryY=-0.011;entryDx=0;entryDy=0;entryPerimeter=0;" parent="1" source="3" target="18" edge="1">
                    <mxGeometry x="-0.0044" width="80" relative="1" as="geometry">
                        <mxPoint x="310" y="239" as="sourcePoint"/>
                        <mxPoint x="378.36" y="239.99999999999997" as="targetPoint"/>
                        <mxPoint as="offset"/>
                    </mxGeometry>
                </mxCell>
                <mxCell id="21" value="2:傳送備課資料()" style="html=1;verticalAlign=bottom;endArrow=classicThin;endFill=1;exitX=0.64;exitY=0.988;exitDx=0;exitDy=0;exitPerimeter=0;" parent="1" source="18" target="22" edge="1">
                    <mxGeometry x="-0.0044" width="80" relative="1" as="geometry">
                        <mxPoint x="430.1600000000001" y="300" as="sourcePoint"/>
                        <mxPoint x="540" y="300" as="targetPoint"/>
                        <mxPoint as="offset"/>
                    </mxGeometry>
                </mxCell>
                <mxCell id="24" value="3:顯示備課結果()" style="html=1;verticalAlign=bottom;endArrow=open;dashed=1;endSize=8;exitX=0.521;exitY=1.052;exitDx=0;exitDy=0;exitPerimeter=0;" parent="1" source="22" target="26" edge="1">
                    <mxGeometry x="-0.0023" relative="1" as="geometry">
                        <mxPoint x="620" y="360" as="sourcePoint"/>
                        <mxPoint x="550" y="363" as="targetPoint"/>
                        <mxPoint as="offset"/>
                    </mxGeometry>
                </mxCell>
                <mxCell id="47" value="5:傳送備課資料()" style="html=1;verticalAlign=bottom;endArrow=classicThin;endFill=1;entryX=0.231;entryY=0.005;entryDx=0;entryDy=0;entryPerimeter=0;exitX=1.116;exitY=0.134;exitDx=0;exitDy=0;exitPerimeter=0;" parent="1" target="46" edge="1">
                    <mxGeometry x="-0.0044" width="80" relative="1" as="geometry">
                        <mxPoint x="556.1600000000001" y="566.81" as="sourcePoint"/>
                        <mxPoint x="620" y="566" as="targetPoint"/>
                        <mxPoint as="offset"/>
                    </mxGeometry>
                </mxCell>
                <mxCell id="48" value="6:傳送備課結果()" style="html=1;verticalAlign=bottom;endArrow=open;dashed=1;endSize=8;exitX=0.052;exitY=0.992;exitDx=0;exitDy=0;exitPerimeter=0;" parent="1" source="46" edge="1">
                    <mxGeometry x="-0.0023" relative="1" as="geometry">
                        <mxPoint x="630.2099999999998" y="635.0000000000001" as="sourcePoint"/>
                        <mxPoint x="560" y="636" as="targetPoint"/>
                        <mxPoint as="offset"/>
                    </mxGeometry>
                </mxCell>
                <mxCell id="88" value="4:修改建議備課資料()" style="html=1;verticalAlign=bottom;endArrow=classicThin;endFill=1;exitX=1.092;exitY=0.016;exitDx=0;exitDy=0;exitPerimeter=0;entryX=0.167;entryY=0.022;entryDx=0;entryDy=0;entryPerimeter=0;" parent="1" edge="1">
                    <mxGeometry x="-0.0044" width="80" relative="1" as="geometry">
                        <mxPoint x="285.91999999999996" y="551.58" as="sourcePoint"/>
                        <mxPoint x="546.6700000000001" y="554.26364" as="targetPoint"/>
                        <mxPoint as="offset"/>
                    </mxGeometry>
                </mxCell>
                <mxCell id="YPL2zZCJEPcPc3VNx12_-90" value="有無修改建議資料" style="text;html=1;align=center;verticalAlign=middle;whiteSpace=wrap;rounded=0;" parent="1" vertex="1">
                    <mxGeometry x="275" y="470" width="130" height="30" as="geometry"/>
                </mxCell>
                <mxCell id="YPL2zZCJEPcPc3VNx12_-93" value="" style="endArrow=classic;html=1;rounded=0;exitX=0.219;exitY=0.214;exitDx=0;exitDy=0;exitPerimeter=0;elbow=vertical;" parent="1" edge="1">
                    <mxGeometry width="50" height="50" relative="1" as="geometry">
                        <mxPoint x="560.0799999999999" y="771.2475" as="sourcePoint"/>
                        <mxPoint x="611" y="771" as="targetPoint"/>
                    </mxGeometry>
                </mxCell>
                <mxCell id="YPL2zZCJEPcPc3VNx12_-98" value="" style="endArrow=none;html=1;rounded=0;entryX=0;entryY=0.5;entryDx=0;entryDy=0;" parent="1" target="YPL2zZCJEPcPc3VNx12_-95" edge="1">
                    <mxGeometry width="50" height="50" relative="1" as="geometry">
                        <mxPoint x="570" y="770" as="sourcePoint"/>
                        <mxPoint x="350" y="810" as="targetPoint"/>
                    </mxGeometry>
                </mxCell>
                <mxCell id="YPL2zZCJEPcPc3VNx12_-104" value="" style="endArrow=none;html=1;rounded=0;" parent="1" target="YPL2zZCJEPcPc3VNx12_-102" edge="1">
                    <mxGeometry width="50" height="50" relative="1" as="geometry">
                        <mxPoint x="580" y="844" as="sourcePoint"/>
                        <mxPoint x="590" y="824" as="targetPoint"/>
                    </mxGeometry>
                </mxCell>
                <mxCell id="43" value="loop" style="shape=umlFrame;whiteSpace=wrap;html=1;" parent="1" vertex="1">
                    <mxGeometry x="490" y="510" width="270" height="171.25" as="geometry"/>
                </mxCell>
            </root>
        </mxGraphModel>
    </diagram>
</mxfile>